<svg width="28" height="28" viewBox="0 0 28 28" fill="none" xmlns="http://www.w3.org/2000/svg">
<mask id="mask0" mask-type="alpha" maskUnits="userSpaceOnUse" x="0" y="0" width="28" height="28">
<rect width="28" height="28" fill="#C4C4C4"/>
</mask>
<g mask="url(#mask0)">
<path d="M2.10023 10.9176C2.06056 10.7523 2.23211 10.6161 2.38415 10.6921L7.83078 13.4154C7.92572 13.4629 8.0412 13.4279 8.09387 13.3357L13.8264 3.30389C13.9031 3.16952 14.0969 3.16952 14.1736 3.30389L19.9061 13.3357C19.9588 13.4279 20.0743 13.4629 20.1692 13.4154L25.6158 10.6921C25.7679 10.6161 25.9394 10.7523 25.8998 10.9176L23.552 20.7001C23.2282 22.049 22.022 23 20.6348 23H7.36519C5.97803 23 4.77175 22.049 4.44803 20.7001L2.10023 10.9176Z" fill="url(#paint0_linear)"/>
<path d="M10.2028 5.20322L9.13506 4.1355L10.2028 3.06778C10.2028 3.06778 9.69826 3.71311 9.66892 4.09444C9.63959 4.47577 10.2028 5.20322 10.2028 5.20322Z" fill="#EBF0F5"/>
<path d="M10.2028 5.20322L9.13506 4.1355L8.06735 5.20322C8.06735 5.20322 8.71268 4.69869 9.09401 4.66935C9.47533 4.64002 10.2028 5.20322 10.2028 5.20322Z" fill="#EBF0F5"/>
<path d="M8.06735 3.06777L9.13506 4.1355L10.2028 3.06778C10.2028 3.06778 9.55747 3.5723 9.17614 3.60163C8.79481 3.63097 8.06735 3.06777 8.06735 3.06777Z" fill="#EBF0F5"/>
<path d="M8.06735 3.06777L9.13506 4.1355L8.06735 5.20322C8.06735 5.20322 8.57188 4.55789 8.60121 4.17656C8.63055 3.79523 8.06735 3.06777 8.06735 3.06777Z" fill="#EBF0F5"/>
<path d="M4.97399 3.97352L3.31615 2.31568L4.974 0.657834C4.974 0.657834 4.19062 1.65983 4.14507 2.25192C4.09952 2.844 4.97399 3.97352 4.97399 3.97352Z" fill="#EBF0F5"/>
<path d="M4.97399 3.97352L3.31615 2.31568L1.65832 3.97351C1.65832 3.97351 2.66031 3.19013 3.2524 3.14459C3.84449 3.09904 4.97399 3.97352 4.97399 3.97352Z" fill="#EBF0F5"/>
<path d="M1.65833 0.657827L3.31615 2.31568L4.974 0.657834C4.974 0.657834 3.97202 1.4412 3.37993 1.48674C2.78784 1.53229 1.65833 0.657827 1.65833 0.657827Z" fill="#EBF0F5"/>
<path d="M1.65833 0.657827L3.31615 2.31568L1.65832 3.97351C1.65832 3.97351 2.4417 2.97152 2.48724 2.37943C2.53279 1.78734 1.65833 0.657827 1.65833 0.657827Z" fill="#EBF0F5"/>
<path d="M6.5844 9.58467L5.38951 8.38978L6.5844 7.19488C6.5844 7.19488 6.01978 7.91707 5.98695 8.34382C5.95413 8.77057 6.5844 9.58467 6.5844 9.58467Z" fill="#EBF0F5"/>
<path d="M6.5844 9.58467L5.38951 8.38978L4.19462 9.58466C4.19462 9.58466 4.91681 9.02004 5.34356 8.98721C5.77031 8.95438 6.5844 9.58467 6.5844 9.58467Z" fill="#EBF0F5"/>
<path d="M4.19463 7.19487L5.38951 8.38978L6.5844 7.19488C6.5844 7.19488 5.86223 7.75949 5.43548 7.79232C5.00873 7.82514 4.19463 7.19487 4.19463 7.19487Z" fill="#EBF0F5"/>
<path d="M4.19463 7.19487L5.38951 8.38978L4.19462 9.58466C4.19462 9.58466 4.75924 8.86247 4.79207 8.43572C4.8249 8.00898 4.19463 7.19487 4.19463 7.19487Z" fill="#EBF0F5"/>
<path d="M27.1797 4.45804L25.3603 2.63868L27.1797 0.81931C27.1797 0.81931 26.32 1.91893 26.27 2.5687C26.22 3.21848 27.1797 4.45804 27.1797 4.45804Z" fill="#EBF0F5"/>
<path d="M27.1797 4.45804L25.3603 2.63868L23.5409 4.45803C23.5409 4.45803 24.6406 3.59833 25.2903 3.54835C25.9401 3.49836 27.1797 4.45804 27.1797 4.45804Z" fill="#EBF0F5"/>
<path d="M23.5409 0.819302L25.3603 2.63868L27.1797 0.81931C27.1797 0.81931 26.0801 1.679 25.4303 1.72898C24.7805 1.77896 23.5409 0.819302 23.5409 0.819302Z" fill="#EBF0F5"/>
<path d="M23.5409 0.819302L25.3603 2.63868L23.5409 4.45803C23.5409 4.45803 24.4006 3.35841 24.4506 2.70864C24.5006 2.05887 23.5409 0.819302 23.5409 0.819302Z" fill="#EBF0F5"/>
<path d="M24.0329 8.52421L23.0219 7.51319L24.0329 6.50216C24.0329 6.50216 23.5552 7.11322 23.5274 7.4743C23.4996 7.83538 24.0329 8.52421 24.0329 8.52421Z" fill="#EBF0F5"/>
<path d="M24.0329 8.52421L23.0219 7.51319L22.0109 8.52421C22.0109 8.52421 22.6219 8.04647 22.983 8.01869C23.3441 7.99092 24.0329 8.52421 24.0329 8.52421Z" fill="#EBF0F5"/>
<path d="M22.0109 6.50215L23.0219 7.51319L24.0329 6.50216C24.0329 6.50216 23.4219 6.97989 23.0608 7.00767C22.6997 7.03544 22.0109 6.50215 22.0109 6.50215Z" fill="#EBF0F5"/>
<path d="M22.0109 6.50215L23.0219 7.51319L22.0109 8.52421C22.0109 8.52421 22.4886 7.91315 22.5164 7.55207C22.5442 7.19098 22.0109 6.50215 22.0109 6.50215Z" fill="#EBF0F5"/>
</g>
<defs>
<linearGradient id="paint0_linear" x1="14" y1="15" x2="14" y2="23" gradientUnits="userSpaceOnUse">
<stop stop-color="#FFCD4B"/>
<stop offset="1" stop-color="#FC8E50"/>
</linearGradient>
</defs>
</svg>
