<svg width="30" height="30" viewBox="0 0 30 30" fill="none" xmlns="http://www.w3.org/2000/svg">
<circle cx="15" cy="15" r="14.5" stroke="#B9C4D2"/>
<path fill-rule="evenodd" clip-rule="evenodd" d="M18.9981 7.78082L16.8939 7.77771C14.5299 7.77771 13.0022 9.22216 13.0022 11.4578V13.1546H10.8865C10.7037 13.1546 10.5557 13.2912 10.5557 13.4597V15.9181C10.5557 16.0866 10.7039 16.2231 10.8865 16.2231H13.0022V22.4265C13.0022 22.595 13.1503 22.7314 13.3331 22.7314H16.0934C16.2763 22.7314 16.4243 22.5948 16.4243 22.4265V16.2231H18.898C19.0809 16.2231 19.2289 16.0866 19.2289 15.9181L19.2299 13.4597C19.2299 13.3788 19.195 13.3013 19.133 13.2441C19.0711 13.1868 18.9867 13.1546 18.8989 13.1546H16.4243V11.7162C16.4243 11.0249 16.6031 10.6739 17.5803 10.6739L18.9978 10.6735C19.1805 10.6735 19.3285 10.5369 19.3285 10.3685V8.08574C19.3285 7.91757 19.1806 7.78113 18.9981 7.78082Z" fill="#B9C4D2"/>
</svg>
