<svg width="30" height="30" viewBox="0 0 30 30" fill="none" xmlns="http://www.w3.org/2000/svg">
<circle cx="15" cy="15" r="14.5" stroke="#B9C4D2"/>
<path d="M14.8799 8.33337C17.0121 8.33337 17.265 8.34136 18.1075 8.37996C20.2716 8.47845 21.2824 9.50527 21.3809 11.6534C21.4195 12.4952 21.4269 12.7481 21.4269 14.8803C21.4269 17.0131 21.4189 17.2654 21.3809 18.1072C21.2818 20.2533 20.2736 21.2821 18.1075 21.3806C17.265 21.4192 17.0134 21.4272 14.8799 21.4272C12.7478 21.4272 12.4949 21.4192 11.6531 21.3806C9.48361 21.2815 8.47808 20.25 8.37959 18.1065C8.34099 17.2647 8.33301 17.0125 8.33301 14.8796C8.33301 12.7475 8.34166 12.4952 8.37959 11.6528C8.47875 9.50527 9.48694 8.47778 11.6531 8.37929C12.4955 8.34136 12.7478 8.33337 14.8799 8.33337ZM14.8799 11.1077C12.7968 11.1077 11.1079 12.7966 11.1079 14.8797C11.1079 16.9628 12.7968 18.6523 14.8799 18.6523C16.963 18.6523 18.6519 16.9634 18.6519 14.8797C18.6519 12.7966 16.963 11.1077 14.8799 11.1077ZM14.8799 17.3282C13.5277 17.3282 12.4314 16.2325 12.4314 14.8797C12.4314 13.5275 13.5277 12.4311 14.8799 12.4311C16.2321 12.4311 17.3285 13.5275 17.3285 14.8797C17.3285 16.2325 16.2321 17.3282 14.8799 17.3282ZM18.8013 10.0774C18.314 10.0774 17.9192 10.4723 17.9192 10.9589C17.9192 11.4456 18.314 11.8404 18.8013 11.8404C19.2879 11.8404 19.6822 11.4456 19.6822 10.9589C19.6822 10.4723 19.2879 10.0774 18.8013 10.0774Z" fill="#B9C4D2"/>
</svg>
