<svg width="30" height="30" viewBox="0 0 30 30" fill="none" xmlns="http://www.w3.org/2000/svg">
<circle cx="15" cy="15" r="14.5" stroke="#B9C4D2"/>
<mask id="mask0" mask-type="alpha" maskUnits="userSpaceOnUse" x="5" y="5" width="20" height="20">
<rect x="5.55566" y="5.55554" width="18.8889" height="18.8889" fill="#B9C4D2"/>
</mask>
<g mask="url(#mask0)">
<path d="M11.501 12.2047H8.33301V21.9442H11.501V12.2047Z" fill="#B9C4D2"/>
<path d="M20.13 12.3189C20.0963 12.3082 20.0645 12.2967 20.029 12.287C19.9865 12.2773 19.944 12.2693 19.9007 12.2622C19.7324 12.2286 19.5483 12.2047 19.3322 12.2047C17.4852 12.2047 16.3138 13.5478 15.9278 14.0667V12.2047H12.7598V21.9442H15.9278V16.6317C15.9278 16.6317 18.322 13.2973 19.3322 15.7463C19.3322 17.9324 19.3322 21.9442 19.3322 21.9442H22.4993V15.3718C22.4993 13.9002 21.4909 12.6739 20.13 12.3189Z" fill="#B9C4D2"/>
<path d="M9.88249 10.8766C10.7382 10.8766 11.432 10.1829 11.432 9.32713C11.432 8.47137 10.7382 7.77765 9.88249 7.77765C9.02673 7.77765 8.33301 8.47137 8.33301 9.32713C8.33301 10.1829 9.02673 10.8766 9.88249 10.8766Z" fill="#B9C4D2"/>
</g>
</svg>
