<svg width="24" height="24" viewBox="0 0 24 24" fill="none" xmlns="http://www.w3.org/2000/svg">
<g opacity="0.3">
<mask id="mask0" mask-type="alpha" maskUnits="userSpaceOnUse" x="0" y="0" width="24" height="24">
<rect width="24" height="24" fill="#C4C4C4"/>
</mask>
<g mask="url(#mask0)">
<path d="M19.0711 9.92893C20.9454 11.8033 21.9989 14.3451 22 16.9958C22 16.9981 21.9981 17 21.9958 17V17C21.9935 17 21.9916 16.9981 21.9916 16.9958C21.9905 14.3474 20.9379 11.8077 19.0651 9.93487C17.1913 8.06108 14.6499 7.00839 12 7.00839C9.35006 7.00839 6.80866 8.06107 4.93487 9.93486C3.06207 11.8077 2.0095 14.3474 2.00839 16.9958C2.00839 16.9981 2.00651 17 2.0042 17V17C2.00188 17 2 16.9981 2 16.9958C2.00111 14.3451 3.05456 11.8033 4.92893 9.92893C6.8043 8.05357 9.34784 7 12 7C14.6522 7 17.1957 8.05357 19.0711 9.92893Z" stroke="#858E99" stroke-width="2"/>
<rect x="6" y="14.7321" width="2" height="7" rx="1" transform="rotate(-60 6 14.7321)" fill="#858E99"/>
</g>
</g>
</svg>
