<svg width="30" height="30" viewBox="0 0 30 30" fill="none" xmlns="http://www.w3.org/2000/svg">
<circle cx="15" cy="15" r="14.5" fill="white" stroke="#B9C4D2"/>
<path d="M15.4072 19.6202C15.364 19.6636 15.364 19.6636 15.3208 19.707C13.6378 21.3971 13.548 21.4816 13.1299 21.4816C12.7418 21.4816 12.4939 21.2846 12.2746 20.9887C12.1861 20.8694 12.1219 20.7565 12.0511 20.6011L10.4073 16.0515L10.4108 15.9825L7.52498 15.0421C7.52498 15.0421 7.11775 14.8767 7.24856 14.5016C7.27557 14.4241 7.32996 14.3583 7.49288 14.2448C8.24894 13.7179 21.4867 8.95986 21.4867 8.95986C21.4867 8.95986 21.8605 8.83403 22.0813 8.91768C22.1822 8.95595 22.2467 8.9992 22.3011 9.15714C22.3207 9.2146 22.332 9.33676 22.3307 9.45833C22.3296 9.54589 22.3187 9.62717 22.3109 9.75455C22.2302 11.0554 19.818 20.7641 19.818 20.7641C19.818 20.7641 19.6736 21.3322 19.1564 21.3516C18.9678 21.3586 18.7389 21.3204 18.4653 21.085C17.9776 20.6655 16.9143 19.9032 15.8551 19.1669C15.7035 19.3211 15.5537 19.4728 15.4072 19.6202ZM14.671 18.3519C13.9939 17.8901 13.4271 17.5097 13.1673 17.3359C13.1237 17.3068 13.1111 17.2687 13.1037 17.2316C13.0928 17.177 13.1521 17.1092 13.1521 17.1092L18.412 12.121C18.412 12.121 13.7553 14.6413 11.8412 15.7197L11.8353 15.8384L13.2478 19.7579C13.5247 19.4968 13.8888 19.139 14.3178 18.7082C14.3604 18.6654 14.3604 18.6654 14.403 18.6226C14.4911 18.5338 14.5806 18.4435 14.671 18.3519Z" fill="#B9C4D2"/>
</svg>
