<svg width="60" height="60" viewBox="0 0 60 60" fill="none" xmlns="http://www.w3.org/2000/svg">
<path d="M0 20.5714C0 13.3708 0 9.77042 1.40134 7.02012C2.634 4.6009 4.6009 2.634 7.02012 1.40134C9.77042 0 13.3708 0 20.5714 0H39.4286C46.6292 0 50.2296 0 52.9799 1.40134C55.3991 2.634 57.366 4.6009 58.5987 7.02012C60 9.77042 60 13.3708 60 20.5714V39.4286C60 46.6292 60 50.2296 58.5987 52.9799C57.366 55.3991 55.3991 57.366 52.9799 58.5987C50.2296 60 46.6292 60 39.4286 60H20.5714C13.3708 60 9.77042 60 7.02012 58.5987C4.6009 57.366 2.634 55.3991 1.40134 52.9799C0 50.2296 0 46.6292 0 39.4286V20.5714Z" fill="#DA3A5B"/>
<path d="M0 20.5714C0 13.3708 0 9.77042 1.40134 7.02012C2.634 4.6009 4.6009 2.634 7.02012 1.40134C9.77042 0 13.3708 0 20.5714 0H39.4286C46.6292 0 50.2296 0 52.9799 1.40134C55.3991 2.634 57.366 4.6009 58.5987 7.02012C60 9.77042 60 13.3708 60 20.5714V36.7143C60 43.915 60 47.5153 58.5987 50.2656C57.366 52.6848 55.3991 54.6517 52.9799 55.8844C50.2296 57.2857 46.6292 57.2857 39.4286 57.2857H20.5714C13.3708 57.2857 9.77042 57.2857 7.02012 55.8844C4.6009 54.6517 2.634 52.6848 1.40134 50.2656C0 47.5153 0 43.915 0 36.7143V20.5714Z" fill="#ED486A"/>
<path d="M0 20.5714C0 13.3708 0 9.77042 1.40134 7.02012C2.634 4.6009 4.6009 2.634 7.02012 1.40134C9.77042 0 13.3708 0 20.5714 0H39.4286C46.6292 0 50.2296 0 52.9799 1.40134C55.3991 2.634 57.366 4.6009 58.5987 7.02012C60 9.77042 60 13.3708 60 20.5714V36.7143C60 43.915 60 47.5153 58.5987 50.2656C57.366 52.6848 55.3991 54.6517 52.9799 55.8844C50.2296 57.2857 46.6292 57.2857 39.4286 57.2857H20.5714C13.3708 57.2857 9.77042 57.2857 7.02012 55.8844C4.6009 54.6517 2.634 52.6848 1.40134 50.2656C0 47.5153 0 43.915 0 36.7143V20.5714Z" fill="#FF6080"/>
<path d="M0 23.1428C0 15.9422 0 12.3418 1.40134 9.59153C2.634 7.17231 4.6009 5.20541 7.02012 3.97276C9.77042 2.57141 13.3708 2.57141 20.5714 2.57141H39.4286C46.6292 2.57141 50.2296 2.57141 52.9799 3.97276C55.3991 5.20541 57.366 7.17231 58.5987 9.59153C60 12.3418 60 15.9422 60 23.1428V36.7143C60 43.9149 60 47.5153 58.5987 50.2656C57.366 52.6848 55.3991 54.6517 52.9799 55.8843C50.2296 57.2857 46.6292 57.2857 39.4286 57.2857H20.5714C13.3708 57.2857 9.77042 57.2857 7.02012 55.8843C4.6009 54.6517 2.634 52.6848 1.40134 50.2656C0 47.5153 0 43.9149 0 36.7143V23.1428Z" fill="#ED486A"/>
<path d="M40.4443 19.795C39.2282 22.9907 37.6162 25.6491 35.58 27.855C33.4024 25.5643 31.7338 22.8493 30.5177 19.795H40.4443ZM48.4761 19.795V16.5144H37.2486V12.046H33.8266V16.5144H22.7405V19.795H26.7847C28.3118 23.924 30.2632 27.4591 32.8085 30.372C29.9521 32.5497 26.417 34.1617 22.2314 35.2646C22.9102 36.0848 23.9566 37.6685 24.3525 38.5452C28.6512 37.1877 32.2994 35.3495 35.3821 32.889C38.3515 35.406 42.0281 37.3008 46.5813 38.4604C47.0903 37.4988 48.165 35.9151 48.9851 35.0949C44.6865 34.1334 41.1231 32.4648 38.2101 30.2306C40.812 27.4025 42.8765 23.9805 44.4036 19.795H48.4761Z" fill="#DA3A5B"/>
<path d="M24.3835 44.6069H15.9415L14.3366 49.4217H9.2168L17.9156 26.0538H22.3773L31.1242 49.4217H26.0045L24.3835 44.6069ZM17.2415 40.7069H23.0835L20.1464 31.96L17.2415 40.7069Z" fill="#DA3A5B"/>
<path d="M40.4443 18.2236C39.2282 21.4193 37.6162 24.0777 35.58 26.2836C33.4024 23.9929 31.7338 21.2779 30.5177 18.2236H40.4443ZM48.4761 18.2236V14.943H37.2486V10.4746H33.8266V14.943H22.7405V18.2236H26.7847C28.3118 22.3526 30.2632 25.8877 32.8085 28.8006C29.9521 30.9782 26.417 32.5903 22.2314 33.6932C22.9102 34.5133 23.9566 36.0971 24.3525 36.9738C28.6512 35.6163 32.2994 33.778 35.3821 31.3176C38.3515 33.8346 42.0281 35.7294 46.5813 36.8889C47.0903 35.9274 48.165 34.3437 48.9851 33.5235C44.6865 32.562 41.1231 30.8934 38.2101 28.6592C40.812 25.8311 42.8765 22.4091 44.4036 18.2236H48.4761Z" fill="white"/>
<path d="M24.3835 43.0355H15.9415L14.3366 47.8503H9.2168L17.9156 24.4824H22.3773L31.1242 47.8503H26.0045L24.3835 43.0355ZM17.2415 39.1355H23.0835L20.1464 30.3886L17.2415 39.1355Z" fill="white"/>
</svg>
