<svg width="30" height="30" viewBox="0 0 30 30" fill="none" xmlns="http://www.w3.org/2000/svg">
<circle cx="15" cy="15" r="14.5" stroke="#B9C4D2"/>
<path d="M23.3103 11.0046C22.7159 11.2659 22.0812 11.4438 21.413 11.5251C22.094 11.1147 22.6179 10.468 22.8657 9.69631C22.227 10.0691 21.5191 10.3404 20.7656 10.4915C20.1638 9.84742 19.3062 9.44446 18.3538 9.44446C16.5291 9.44446 15.0495 10.924 15.0495 12.7467C15.0495 13.0087 15.0798 13.2605 15.1348 13.5016C12.388 13.372 9.9534 12.053 8.32409 10.059C8.03731 10.5439 7.8768 11.1074 7.8768 11.7212C7.8768 12.8696 8.4611 13.8791 9.34627 14.4721C8.80429 14.4546 8.29454 14.3055 7.84994 14.0584V14.0994C7.84994 15.7011 8.98696 17.037 10.5001 17.3412C10.2227 17.4157 9.9299 17.456 9.62969 17.456C9.4188 17.456 9.21665 17.4359 9.0145 17.3983C9.43828 18.7099 10.6566 19.6663 12.1066 19.6932C10.9783 20.579 9.54842 21.1069 8.00843 21.1069C7.74651 21.1069 7.48525 21.0914 7.22266 21.0619C8.6928 21.9981 10.4249 22.5455 12.298 22.5455C18.3787 22.5455 21.6998 17.5111 21.6998 13.1524C21.6998 13.012 21.6998 12.8703 21.6897 12.7293C22.3351 12.2665 22.8986 11.6816 23.3418 11.018L23.3103 11.0046Z" fill="#B9C4D2"/>
</svg>
